<svg xmlns="http://www.w3.org/2000/svg" viewBox="0 0 1920 1080"><defs><style>.cls-1,.cls-2,.cls-3,.cls-4,.cls-6,.cls-7,.cls-8{fill:none;}.cls-1{stroke:#000;}.cls-1,.cls-6,.cls-8{stroke-miterlimit:10;}.cls-2,.cls-4,.cls-6{stroke:#231815;}.cls-2{stroke-miterlimit:22.93;}.cls-3{stroke:#b1b1b1;}.cls-3,.cls-4,.cls-7{stroke-linecap:round;stroke-linejoin:round;}.cls-10,.cls-5,.cls-9{fill:#231815;}.cls-6,.cls-7,.cls-8{stroke-width:0.75px;}.cls-7,.cls-8{stroke:#666;}.cls-9{opacity:0.7;}.cls-10,.cls-9{font-size:23px;font-family:SourceHanSerifCN-Heavy-GBpc-EUC-H, Source Han Serif CN;}</style></defs><title>南宋版图1</title><g id="图层_1" data-name="图层 1"><path class="cls-1" d="M1239.5,224.5c3-1,9-6,11-8l2-2s4,0,13-8,8-10,15-16,12-8,9-14-6-12-8-13,1-3-2-5-6-8-6-11,7-2,8-5-3-7-2-10,0-3-1-9-5-7-10-9-21-8-23-8-8-3-10-3-7-4-10-4-5,2-9,2-2-1-4-2-5-2-6-5-5-3-6-4-5-5-5-6,1-1,1-2-2-2-2-4,1-7,0-9-7-10-9-11-6-9-6-9v-2l-4-9s-3,0-6-4-4-12-6-12a3.7,3.7,0,0,0-3,2,180.52,180.52,0,0,1-17,9c-6,8-4,14-8,18s-13,9-15,20c-5,6-4,12-8,13-3-3-2-7-7-5s-7,6-11,6-10-2-14,4c-2,8-3,10-5,10s-5-2-9,0-8,4-13,4c-5,2-2,9-4,12s-2,7-8,7-8-1-8,6c-2,6-4,5-6,5a44,44,0,0,0-10,2s-5,3-13-3-16,5-16,5-2,6-13,7-14,2-16,4-7,7-8,7-14,1-17,2-7,2-10-4c-5-6-11,0-11,0s-3,5-5,6-2,4-9-4c-9,1-10,6-17,5s-17,0-17,0-8,3-12,4-14,3-18,2-5-1-7,0c0,0-2,3-5-1a5.63,5.63,0,0,0-7-2,40.76,40.76,0,0,1-7-2c-2-4-7-8-10-8h-8s-1-2-2-2-2-6-4-7-4-1-5-3-4,0-7-3-10-14-12-15c-5,0-7,6-11,6s-5,1-10-7c-8-3-14-1-14-1s-5-4-5-6-5-3-10-1-12,0-14,2-3,5-2,9,2,7,0,7-9-2-12-4a35.19,35.19,0,0,0-12-2c-1,0-6-1-8-1s-4-4-7-5-8,1-10-1-3-3-9-2-11-1-12-4-3-8-7-9c-4-2-16-6-19-8s-13-6-14-9-6-5-6-5a13.83,13.83,0,0,0-7-2c-4-6-3-4-3-4l-3-3c-2-2-7-4-9-3s-3,3-5,5-5,5-7-1c-3-5-6-4-7-2s-5,7-9,9a23.13,23.13,0,0,1-9,2s-6-6-6-8-8-3-11-2-11,1-11-2-2-8-3-8a6.46,6.46,0,0,0-5,2c-4,0-12-1-16-1s-6,2-9,3-9,1-13,1-5,0-8,1-5,2-6,1a7.64,7.64,0,0,0-5-2c-2,0-4,0-4,2s2,6,2,6,1,4,0,4-8,7-9,10-1,15-1,15-3,2-3,4,1,3,4,3,4-1,4-1,2-2,3,1,0,12,0,12-2,6,0,9,2,7,3,7,4,1,7-2,4-3,4-3a14.39,14.39,0,0,0,3-2,8.45,8.45,0,0,1,6-2c3,0,5,0,5,3s1,4-1,6-6,2-7,6a18.58,18.58,0,0,0,0,8v9a51.3,51.3,0,0,0,1,10c1,4,1,13,1,15s-2,6-3,8-5,6-7,9-2,6-6,10-7,6-12,6-18-1-20,0-6,4-7,7,0,12,0,14,1,9,2,10,9,1,9,1,5-1,7-3,4-3,5-3,3,2,2,3-1,4,0,5,0,4-1,7-2,6-3,7-3,3-3,5,1,4-1,4-9,6-9,6,0,7-1,9-2,3-2,5-2,3-3,4-4,1-4,1,1-7-7-13c-3-9-4-11-3-15s2-11,1-11-13-2-16,0-7,2-8,8,0,22,0,22,0,4-3,5a9,9,0,0,0-6,6c-1,3-7,8-9,8s-6,2-6,5,2,9,3,10,2,5,2,8-1,7,1,9,6,1,9-3,7-8,9-8,3,1,4,3-1,6-1,6-3,6-3,8,2,4,3,5,3,2,2,5-6,6-7,10a38.69,38.69,0,0,0-1,9c0,1-5,5-7,6s-4,2-6,7-4,8-4,9,1,3,0,4-2,4-2,6,1,4,2,6,3-1,4-1,7,1,9,0,7-2,8-1,1,4,0,5,3,5,6,5,12,2,15,3,7,2,9-1,3-8,5-10,4-6,8-5,6,1,7,9,1,8,3,10,6,4,6,5,3,4,3,5,1,5,0,7-9,13-11,14-8,6-9,7-5,3-7,3a4.3,4.3,0,0,0-4,4c0,2-1,6-1,9s-1,8-1,9,0,3,3,7,1,6,2,9,3,9,3,11-1,4-2,6,0,2-1,4-2,3-5,3-6,2-6,4,2,7,4,8,6,4,6,6c0,0,1,5,1,6s10,1,11,0,2-6,5-6,6-1,7,3,2,6,3,6,1-1,2-1a3.67,3.67,0,0,0,3-1c1-1,0-3-1-4s-1-10-1-11,3-4,4-6,1-9,1-10,2-5,5-6,6,0,9,1,7,0,10-3,5-4,11-4a31.39,31.39,0,0,1,9,1s6,3,8,8,2,10,3,13,3,4,7,2,5,0,6,1a8.45,8.45,0,0,0,6,2h6c1,0,0,6,1,7s7,7,7,8,1,5-3,6-10,4-12,4-9,7-10,7-2,1-4,2-3,1-4,4,0,4,0,7,4,8,4,8a7.2,7.2,0,0,1,0,7,14.93,14.93,0,0,1-6,6s-4,3-4,6,0,7-1,9-1,7-1,7,0,4,1,5,4,2,4,4-1,16-1,18,0,6,4,9,6,3,6,5,3,7,4,8,2,4,5,6a29.94,29.94,0,0,0,8,4c3,1,6,2,9,5s6,4,8,6l8,8c1,1,6,5,8,5s3-1,4,0a7.58,7.58,0,0,0,4,2h2s1,0,3-2,8-1,9,0,6,5,8,5,4,0,5-1,3-1,4-2,4,1,6-1c3,1,2,4,5,5s3,1,3,3,0,5-2,6-4,4-6,4-3,0-4,2-1,1-1,3,1,3,2,5,5,8,5,9,2,3-1,4-6,0-6,2,2,5,3,7,3,4,3,6,1,5,3,5,2,0,5,1,5,3,6,3,11,5,12,6a13.63,13.63,0,0,0,9,5c6,3,12,4,16,3s6-3,8-4,5-2,6-1,7,7,11,8,6,0,7-1a42.33,42.33,0,0,1,7-5c2-1,5,1,6-1s2-4,4-4,3,0,3,2v3a7.27,7.27,0,0,1,5-5c0-3-2-2-2-4s-2-4-2-4-1-3,0-4,1-3,3-2,4,2,4,3-1,3,0,4,3,0,3,1,3-1,5,0,1,4,3,5a7.56,7.56,0,0,0,4,1c1,0,7-3,12,1s4,6,8,8,9,3,12,5,13,1,16,1,8-4,9-3-1,3-1,4v3c0,1-2,2-2,2v-1s-2,3,0,4,3,6,3,7-3,4-3,7-3,9-1,11,4,6,5,10,1,8,3,8,3,0,4,1,1,2,2,3a4.4,4.4,0,0,0,5,1s8,2,12,0,8-6,11-9-1-7-1-9-6-4-6-7-6-8-9-8-4-4-4-6,6-3,11-2,6,3,8,5,3-1,4-2-4-4-4-7,7-13,8-17,10-3,10-3l2-2s4-2,4-4,3-2,7-2,6,3,8,1,2-3,7-3,11-8,13-9,8-2,9-5,0-3,3-4,4-4,8-2,6,8,9,8,8-4,11-4,5-3,5-3,5-1,7-3,2-8,3-7c0,0,4-3,6-1s7,3,8-2,1-15,2-13-5-7-5-8,0-8-3-8-7-2-7-2,4-1,6-4,2-9,0-11-12-4-13-10,1-6,1-6,6,9,8,9h2a4.83,4.83,0,0,0,4,0c2-1,5-4,5-2s0,7,2,7a3.7,3.7,0,0,0,3-2l-1-4v-2l-2-3a22.69,22.69,0,0,0-4-1c-1,0-1,4-5,2a37.32,37.32,0,0,1-8-6s-4-3-1-3,5,2,7,2h7c2,0,3,3,5,2s3-3,6-2,4,1,5,0a3.48,3.48,0,0,1,5,1c1,2,4,8,5,9s1,6,4,6,6-1,7,3,3,8,5,9,3,6,7,7,1,3,4,3,5-2,7-1,10,1,11,1a3.49,3.49,0,0,0,2-1s-1-4,1-5,6-4,6-6,2-1,2-2-2-4-2-6-3-3-5-3,5-7,10-8,5-1,4,2c-1,2-2,8,0,8s5,1,5,2c0,0,6,3,6-3-4-5-5-6-1-6s8-3,9-4,8-4,11-2,2,7,7,7,7,0,7-1,1-5-2-6,0-7,3-8,6,3,8,5,4,2,6,0,7-3,10-4,6-5,8-7,8,0,10-1,6-5,6-7,2-7,0-8-6-3-4-4,5,0,9,0,4-1,4-1v-4a43.31,43.31,0,0,0-5-1c-1,0,3-5,5-6s1-3,2-5,1-6,1-7,7-2,8-1-1,2,1,3,3,1,4,0a14.39,14.39,0,0,0,2-3h5c2,0,2,2,4,2s3-5,3-6,4-5,0-6-2-3-4-3,2-2,3-4,0-2,0-4,4-4,6-2,3,6,2,7-3,6-2,7,6,1,6-1,0-8,2-10,8-8,8-9,0-9,1-10,8-4,8-6-3-7-6-7,0-5-1-5-2-3,0-3,4,0,5-1,2,1,5,0,7-3,7-4,0-3,2-3,4,3,5,4,2,4,4,2,5-5,4-7,1-3,2-4l1-1s1-2,0-3a3.1,3.1,0,0,1-1-2h-3c-1,0-1-2-2-2s0,3-2,1l-2-2s2-4,3-3,3,4,4,3,3-1,5-2,3,1,5,1,6-4,5-4-3-2-4-2a2.15,2.15,0,0,1-2-2c0-1,5-2,5-2s-1-3-3-3-2,1-3,0,1-4,1-5v-5a4.94,4.94,0,0,1,3,1c1,1,1,6,2,6a2.15,2.15,0,0,0,2-2c0-1-1-3,0-3s6,2,7,1,4-4,4-6-1-6-2-6-3,1-5,0-5-3-4-4,4-3,5-2,1,4,2,3a14.39,14.39,0,0,0,2-3v-2l2-1a3.55,3.55,0,0,1,3,2,10,10,0,0,1,1,4s1,4,2,4,2-3,3-2,2,3,3,3,2-4,2-4-1-5-1-6-2-3-3-4-2-1-2-3-3-1-3-3,2-2,3-3,2-4,1-5-2,0-1-3,1-10-1-12-5-4-3-7,8-3,9-5,4-5,5-6-2-4-3-4h-1s-5,1-6,2-4,0-4,0v-1c0-1-1-1-2-2s-3-4-2-4,4-1,5,1,2,2,3,1,4,0,4-2-2-1-3-3-1-3-3-4-4-2-5-1-2,3-3,1-1-2,0-3-1-2-1-3-2-2,0-3,2-1,2-2-1-4,1-2,0,4,3,4,3-1,4,0,0,3,2,3,2,0,3-1,3-1,3-2,2,6-1,7-2,4-1,4,4-4,5-4,2,2,4,2h2s0-5-1-7a31.12,31.12,0,0,0-4-6c-1-1,8-1,8-4s0-8,1-10,0-7,0-7,6,0,7-1,0-3-2-3-6,0-7,1-1-2,0-3l1-1h1a22.69,22.69,0,0,0,4,1h3l1,2s4-5,3-7,4-1,4-1,1-6-1-7-3-2-3-5,3-9,3-9v-1s0,1,1-1,0-3,2-4,2-2,2-5-5-3-4-4-2-2-2-2,8,1,9,0,1-9,4-11,2-11,3-12,6,7,7,8a10.56,10.56,0,0,0,5,2c1,0,2-9,2-9a1,1,0,0,1,1-1c1,0,4-1,5,1s2,2,2,2,2-6,0-7-2-5-2-8,1-4-2-5a25.67,25.67,0,0,1-5-2,12.38,12.38,0,0,1-3-2s7-2,9-5,3-5,1-6-4-3-6-3,4-1,5-2,2-3,0-4,0-2-2-4-1-4-5-4-7,1-7-1,4-3,6-5,8-2,9,1,1-5,1-5,5,0,6,3,3,1,4,0-6-8-6-10,2-11,1-12a3,3,0,0,0-4,0c-1,1-10-3-10-3s6-6,8-5,9,0,9,0,5-11,8-10,8-2,8-2l-4-9-9-4s-13-2-13-1,0,4,1,4,0,3,0,3l-4-2s-1,0-1,2,0,1-1,2-4,1-4,2-3,1-5-1-3-2-6-2-20-2-23-1-9,6-12,7-15-1-15-1v-1s-7-4-7-5,3-2,4-3S1239.5,224.5,1239.5,224.5Z"/><polygon class="cls-2" points="783.22 875.92 785.02 873.35 785.36 873.18 785.71 873.1 786.73 873.1 789.99 873.01 790.25 873.01 790.42 873.18 790.85 873.87 791.11 874.04 791.45 874.13 792.13 874.13 792.39 874.04 792.48 874.04 792.48 873.95 792.56 873.87 792.56 873.1 792.99 871.98 793.33 871.47 793.76 871.21 794.71 870.95 795.39 870.78 797.19 870.87 798.73 871.13 800.11 871.55 802.68 872.58 803.62 872.75 803.88 872.75 804.31 872.67 805.16 871.47 805.59 871.04 806.02 870.78 806.53 870.61 808.25 870.01 809.79 869.67 810.39 869.41 810.65 869.24 811.08 868.81 811.25 868.55 811.59 868.21 812.02 867.78 812.19 867.7 812.19 867.61 812.28 867.61 812.45 867.61 812.53 867.61 812.79 867.7 813.13 867.87 813.48 868.04 813.65 868.3 813.73 868.38 814.68 871.38 815.02 872.24 815.11 872.33 815.28 872.33 816.48 872.5 816.99 872.58 817.33 872.84 817.68 873.1 818.19 873.7 818.53 874.3 819.22 874.81 820.34 875.15 821.19 875.41 821.79 875.41 824.02 874.98 824.53 874.64 825.22 874.38 825.91 874.47 826.25 874.64 826.51 874.9 826.68 875.33 827.79 878.93 829.25 883.81 830.88 888.35 832.42 894.36 832.59 895.55 832.42 896.07 832.08 896.41 831.56 896.75 831.13 896.84 830.36 896.93 829.85 896.93 829.42 896.93 828.99 897.18 828.48 897.53 826.59 898.73 825.13 899.84 823.51 901.73 822.56 903.27 821.45 905.41 820.42 906.61 818.62 908.24 818.36 908.5 817.85 908.67 817.51 908.84 816.13 909.01 815.96 909.1 815.79 909.44 815.02 911.67 814.68 912.61 814.16 913.38 813.56 914.07 813.22 914.5 813.05 914.84 812.96 915.18 812.96 915.44 812.71 915.96 811.59 918.53 810.73 920.84 810.56 921.7 810.22 925.38 809.62 932.93 809.36 935.33 809.36 936.27 809.53 937.56 809.62 938.41 809.71 939.27 809.53 940.21 809.45 940.73 809.11 941.41 808.5 942.01 807.73 942.44 806.71 942.78 805.59 943.13 805.25 943.21 805.16 943.3 805.08 943.99 805.16 945.36 805.42 947.67 805.42 948.44 805.33 948.61 805.16 948.7 804.73 948.78 798.65 949.81 798.39 949.9 798.13 949.9 797.79 949.81 797.62 949.64 797.36 949.38 797.11 949.3 796.68 949.38 794.62 950.07 793.33 950.76 792.56 951.27 790.93 952.9 790.16 953.59 788.11 955.21 787.25 955.73 786.3 956.59 786.13 956.93 785.71 957.87 785.36 959.41 785.19 961.13 784.93 962.67 784.76 963.1 784.42 963.61 783.99 963.96 782.79 964.38 781.59 964.81 781.16 964.9 780.39 964.9 779.88 964.73 779.36 964.56 778.5 964.3 777.56 964.21 776.88 964.13 776.28 964.13 775.68 964.3 772.85 965.07 770.53 965.84 769.93 966.01 769.5 966.27 769.42 966.36 769.25 966.96 769.16 968.16 768.9 968.84 768.56 969.79 768.48 970.56 768.48 971.59 767.88 974.07 767.45 974.59 766.76 974.93 765.82 975.27 764.79 975.36 764.02 975.27 763.42 975.19 763.08 975.19 762.56 975.27 762.22 975.44 762.05 975.53 761.7 975.7 761.19 976.13 760.85 976.47 760.16 976.81 759.56 976.99 758.96 976.99 758.45 976.99 758.1 976.9 757.5 976.47 756.65 975.7 756.39 975.61 756.05 975.61 754.42 975.7 753.9 975.61 753.56 975.53 753.3 975.36 753.13 975.01 752.96 974.59 752.88 974.59 752.7 974.41 752.19 974.16 748.42 973.64 747.82 973.47 747.22 972.87 745.59 971.33 744.9 971.07 744.3 970.9 741.56 971.07 741.13 971.07 738.56 971.24 737.79 971.24 737.19 971.16 736.93 971.07 736.76 970.9 736.59 970.56 736.33 969.44 735.99 968.33 735.82 968.16 735.56 968.07 735.13 967.99 731.96 967.99 730.42 967.99 729.99 968.07 729.64 968.33 729.56 968.59 729.3 968.67 727.76 968.93 727.42 969.01 727.25 968.93 726.99 968.84 726.82 968.67 726.22 967.56 725.79 966.78 724.76 964.73 723.99 963.7 723.82 963.44 723.64 963.27 723.47 963.27 722.79 963.27 722.53 963.27 722.19 963.18 721.93 963.18 720.47 962.76 719.27 962.24 718.16 961.99 714.73 961.99 713.7 961.81 712.76 961.47 712.16 961.04 711.73 960.44 711.39 959.76 711.22 958.38 711.13 957.36 711.13 955.56 711.9 952.13 712.16 949.81 711.9 947.5 711.82 946.99 711.56 946.3 710.62 945.18 709.33 943.9 708.47 942.61 708.22 941.93 708.13 941.16 708.13 940.64 708.22 940.04 708.47 939.36 709.67 937.99 710.27 937.38 710.45 937.21 710.62 936.7 710.62 936.53 710.19 933.18 710.19 932.41 710.1 932.33 709.67 931.98 709.24 931.64 708.99 931.21 708.47 929.58 708.04 926.84 707.96 924.96 708.22 922.55 708.39 920.33 708.56 918.44 708.73 917.75 709.07 917.07 709.85 915.78 710.45 913.9 710.79 913.3 711.39 912.53 712.25 912.1 712.93 911.84 713.53 911.67 714.39 911.67 715.07 911.67 715.59 911.5 716.45 910.98 716.79 910.64 717.47 909.53 717.82 908.93 718.5 908.33 719.36 907.98 720.3 907.64 720.9 907.3 722.53 906.18 724.59 904.21 726.73 901.98 727.16 901.38 727.76 900.87 728.1 900.7 729.04 900.27 729.47 899.84 729.9 899.5 730.5 899.07 731.1 898.04 731.36 897.27 731.96 896.15 732.3 895.73 732.65 895.3 733.42 894.87 733.93 894.7 734.96 894.53 735.39 894.36 735.47 893.67 735.73 893.33 736.33 893.24 736.42 892.9 736.42 892.64 736.08 891.78 735.9 891.44 735.82 891.18 735.82 890.58 735.82 890.24 735.82 889.81 735.99 889.55 736.25 889.04 736.42 888.78 736.59 888.52 737.45 887.84 737.96 887.67 738.05 887.67 738.13 887.41 738.13 887.15 738.22 886.98 738.47 886.64 738.73 886.3 738.99 886.04 739.42 885.87 739.67 885.78 739.85 885.87 740.1 885.87 740.19 885.87 740.62 885.61 740.62 885.52 740.62 885.44 740.62 885.35 740.62 885.27 740.7 885.01 740.79 884.84 740.79 884.75 740.79 884.33 740.79 883.98 740.88 883.64 741.05 883.55 741.13 883.55 741.39 883.64 741.73 883.73 741.82 883.81 741.9 883.81 741.99 883.73 741.9 883.55 741.9 883.47 741.99 883.3 742.16 883.13 742.76 882.87 742.85 882.87 743.02 882.87 743.19 882.87 743.27 882.87 744.3 883.13 744.39 883.13 744.56 883.21 744.99 883.55 745.16 883.73 745.25 883.81 745.5 883.81 745.76 883.73 746.1 883.73 748.33 883.9 750.39 884.33 752.88 884.93 753.39 883.38 753.9 881.67 754.16 881.15 755.62 879.87 756.39 879.1 756.73 878.84 757.08 878.75 757.68 878.58 758.45 878.41 758.79 878.33 759.48 878.24 760.25 877.81 760.33 877.64 760.67 877.38 760.93 877.3 761.27 877.21 761.62 877.13 762.13 877.21 762.48 877.21 762.9 877.13 763.42 876.95 763.68 876.95 764.02 877.13 764.53 877.38 765.3 878.33 765.9 878.84 766.33 878.93 766.93 879.01 767.28 878.93 767.53 878.84 767.88 878.58 768.22 878.33 768.56 878.15 768.9 878.07 769.33 878.07 769.59 878.07 769.93 878.24 770.62 878.58 771.22 878.41 772.16 878.15 772.5 878.07 772.76 877.98 774.05 877.81 774.99 877.81 775.59 877.81 776.19 877.9 776.96 878.15 777.56 878.5 777.82 878.58 778.42 878.5 779.02 878.33 780.05 877.9 783.22 875.92"/><path class="cls-3" d="M1257.53,608.43l0-.34.16-.18.33-.28.34,0,.1.17.1.25-.16.18-.08.09-.17.1-.16.18-.17.09h-.17Zm1.43-6.27v-.08h.09l.09.08v.09h-.09Zm-.29-.49v-.09h.17v.17h-.17Zm5.7,9.19v-.09l.09.08h.09l-.08.09h-.09Zm-13.65,20v-.09l.16-.09.09.08v.08l-.08.09h-.09Zm31.15-14.75,0-.51.06-.35.38-.8.24-.35.15-.27.24-.44.15-.36.14-.43.32-.45.15-.27.08-.18.17-.09.09.08-.23.53-.47.8-.45,1.06-.06.34v.26l-.15.27-.16.26-.16.19-.07.26-.08.17v.17l-.07.27h-.08l-.18-.07Zm1.73-2.68.13-.61.16-.18.16-.27.15-.26.08-.09.08-.09.26,0h.09l-.24.35-.24.28-.15.35-.31.53-.17.1Zm54.58,88.27v-.09h.17v.09l-.08.09h-.09Zm0,.43v-.09h.17l.09.08-.08.09h-.09ZM1434.33,458v-.09l.08-.09h.17l.18.16V458l-.08.09h-.26Zm-.51-.06v-.17l.08-.09v-.08l.1.16.1.25-.08.09-.08.09-.09-.08Zm4.88-8.79V449h.09v-.09h.26V449h.08v.08h.08v.08h.08v.17h-.08v.09h-.43v-.09h-.09v-.09h-.09v-.09Zm-4.94,9.23h.08v.09h-.09Zm-.17.18h0Zm1.61,1h0Zm-5,1.41h.09l.16-.1v-.08h.17v-.09h.69l.09.08h.08l.09.08h.09v.08h.08v.08l-.08.1h-.09v.09h-.34v.08h-.09v-.09h-.09v.08H1431v-.09h-.09v.08h-.09l.09.08h-.09v.09h-.09v-.08h-.09v.09l-.08.09h-.09l-.08.09h-.08l-.08.09h-.17v-.08h0v-.09H1430v-.18l.08-.09.07-.17.09-.09Zm1.18-.33h0Zm2.86.43v.09h.17v.25h-.17v-.18h-.08v-.09h-.08v0H1434v-.08h.08V461h.08v-.08h.08V461h-.09v.09Zm.45.23h.08v.08h.17v.09h.09v.08h-.6v-.18h.17v-.08Zm-.26.1v0Zm-.08.1v0Zm.69,0v0Zm0-.08v0Zm.55-2.27.07-.18.08-.17.09.08.1.16-.08.18v.08l-.09-.08Zm46.35-19v-.08h.09V440h.17l.09.08h-.17v.09H1482Zm-168.9,227.9-2-.83-2.11-.9-.71-.3-3.27-1.61-1.46-1.37-1-1.58-4.16-6.44-1.7-3.94-2.46-5.17-1.17-3.8-.42-1.35-.2-.33-.09-.08-1.65-.33-3-.94-.88-.37-.47-.58-.21-.67-.15-1,0-.86.12-.78.21-.79.22-.7.24-3.11.4-3.37-.06-1,0-.6.31-.53.38-.8.25-1.56-.2-2-.19-1.71-.17-2.74-.23-2.56-.2-.33-.38-.75-1-1.4-.39-.84-.23-.93,0-1-.08-1.28-.36-3.24-.21-.67.06-.44.61-1.15.55-.89.36-1.23.44-1.14.45-1.06.15-.52,1-.83.82-.57.82-.65.58-.29.39-.71,0-.6.12-2.24,0-.43.28-1.05.47-.8.64-.81.23-1.82.88-2.46.49-1.91,1.17-3.42,1.32-2.23,1-1.78.08-1.55.32-1.82,1.06-2.38.75-1.85.74-3.39,1.5-3.7,1.17-2,.93-1.6.28-2.59.39-2.09.49-1.74.8-1,1.29-1.45.48-.63.56-.63,1.06-.84.74-.64.9-.75.47-.8.61-1.15.24-.44.15-.36.64-.64.17-.18.21-.7.14-.61-.12-2-.08-1.29,0-.77.13-.7.22-.7.35-1.31.44-1.14.45-1.23.29-.79.54-1,.79-1.16.53-1.23.13-.7v-1.2l.06-.43.07-.27.16-.26.25-.1.33-.2.68-.12.58-.47.81-.82.32-.36.32-.28.94-.23.25-.1.33-.1.79-1.17,1.31-1.1,1.14-1.1,1.25-.51,4-1.19,1.75-1,.57-.55.69-1.33.24-1.81.34-1.49,1.25-2.05.73-.73,1.06-.83,1.33-.85.92-.4,1.26-.34,1.19-.24,1,.11,1.06.37,1.27,1.21.48.75.37.58.27.15.78.13.68-.05.61.14.37.41.14.85.21.59,1.69,1,.53.23.26.07.76-.22.85-.14,1.12.11.87.2.8.47.35.07.27-.25,1.78-.54.68,0,.35.15.27.16.1.16,0,.35.22.93.15,1,.29.5.8,1.84.36.32.34,0-1.49-.12.76-.13.53.14.35.15.26.07.45.23.27.33,0,.43-.72,1-1,1.18.4,1.9-.61,1.24-1.09,2-.71,1-.9,2.2v1.29l.28,1.7.15,1.19.52,1.43,2.65,3.16,2,2.63.22.76.34,2.81v1.29l-.36,1.05-.14.61.07,1.2-.21.79-1.21,2.65-.12,2.32.06,2.4-.74,2-1,2.12-1.49,3.78-.61,1.24-.46.89-.18,1.3,0,.94-.53,1.23-.79,1.08-.12.78.23,1.1.47.66.75,1,.3.75,0,.52-.57,1.92-.5,3-.06,9-.72,9.57-.33,3,.07,1.2.31.84.06,1-.07.26-.28,1.13-.21,2.25,0,3.35v1.37l0,.69-.22.7-.15.44-.23.36-.47.71-.38.88-.21.87-.18,1.22.12.51-.07.34-.17,1.39,0,.34.4,1.09.68,1.25.2.42.11.42-.07.26-.07.26-.15.35-.24.36-.32.37-.33.27-.49.38-.42.19-.4.37-.17.18-.16,1.56.15,2.56-.41,1.66-.48,2.09-.6,1.5-1.21,2.64-.7,1.16-.56.81-.31.53-.52,2.7-.19,1.12-.45,1.15-1.1,1.78-1.13,1.18-3,2.5-1.33.86-.74.56-.23.44-.24,1.73.15,1,0,.6-.41.46-.47.63-.3,2.25-.52,5.61-.54,3.9-.23,3.27.21,2,.34,2.81.23,2.39.17,1.54.06.86.1.33.19.33.28.33.24,1.1.3,2.13,0,.78-.14.52-.24.36-.29.79-.23.61-.49.38-.23.35,0,.61.23,1,.31.93.22.85.42,1.26-.23.44-.24.27-.33.2-.6-.05-.44-.15L1337,694l-2.19-.72-.87-.12-.42.11-.41.36-.24.36-.5.12-.6,0-.53-.14-.53-.22-1.5-2.14-.72-.65-1.28-2.58-.12-.68.22-.62.13-.61-.38-2.12-.59-2.63-.72-2-.62-1.77-.39-.75-.47-.66-1-1.4-1.22-1.73-1.11-1.31-.73-.81-1-.63-2.15-1.5-.62-.31-1.22-.27ZM1259.38,605l.17-.18.08-.09.15-.35h.08l-.09-.16.08-.09h.17v.17l.09.08h.26l.18.16v.09l.1.16-.08.09-.08.1h-.17v.25l-.18-.07H1260l-.08.09-.07.17-.07.27v.17l-.09-.08v-.17l-.1-.26h-.26v-.26Zm-2.05,1.58.08-.09h.17v.09h.09v.09h-.09v.26h.09l-.08.09h.08v.09h-.09v.09h-.09v-.51h-.09v-.09Zm5.55,2.33.08-.09.17-.09h.34l.09.08-.08.09-.08.09h-.08l-.08.09-.1-.08h-.08V609L1263,609h-.08Zm-7.29,3v-.26l.07-.18v-.08h.08l.16-.26,0-.26.08-.18.16-.09h.18l.18.16.35.15.18.07h.25l.25-.1h.09l.09.08V611l-.16.35-.08.09-.33.11-.34.1-.08.1h-.09v.34l.11.25.1.34.11.34v.25l-.06.35h-.17l-.08.09h-.09v.08l.18.25v.26l-.08.17v.09l.09.08v.17l.18.16.09.08-.08.09-.16.18h-.17l-.43,0-.18-.08-.09-.08h-.08l-.08.09v.09l-.08.09-.16.09h-.18l-.16.1-.25.18h-.17l-.26,0-.09-.08v-.09l.07-.17.33-.28.08-.09.07-.26.17-.1h.08l.1.16h.34l.17-.09v-.09l.08-.17h.08l.08-.09,0-.34v-.09l-.1-.16-.26-.07h-.26v-.26l.07-.17h.09l.09.08v.09h.18l.07-.18-.09-.16.07-.27v-.17l.08-.09v-.08h-.08l-.19-.16-.09-.08v-.09l.07-.17V612Zm5.22-.4.08-.09v-.09h.09l.09.08h.25v.09l0,.25v.18l-.17.09-.17.1h-.25l-.09-.08v-.08l-.18-.08v-.17h.18l.08-.09Zm-3-2.23.75-.39.33-.19.25-.18h.17l.27.15.09.08h.17v-.08l.17-.1.17.08.27.15.1.25.18.08v.08l-.08.09.1.17.19.25V610l-.08.09-.18-.08-.17.1-.08.09v.17l.1.17h.34l.09.08v.17l-.08.09h-.17v.43l-.08.17-.17.1-.09-.08v-.09h-.26l-.08.09H1260v-.09l0-.34.08-.09.07-.17.08-.18-.09-.08-.36-.15-.28-.41-.28-.33v-.09l-.09-.08-.17.1-.16.18-.07.26-.08.09-.17.1-.34-.07-.27-.15-.1-.17,0-.34Zm5.4,5.52-.16.26-.16.19-.33.27-.15.27-.08.09h-.17l-.17.1-.15.44v.17h.09l.09.08.1.17-.08.09-.08.17-.08.1.1.16v.17l-.08.09h-.09l-.35-.07-.25,0H1261l-.42.2-.24.19-.18-.08-.09-.08v-.51l-.1-.17-.09-.08-.26,0-.16.09h-.09l-.18-.16-.09-.08v-.09l-.09-.08v-.08h-.17v-.09l-.09-.08v-.09h-.09l-.08.09-.17-.08-.1-.16,0-.34.16-.27.07-.26h.17l.18.24v.09l.1.25.19.25.18.16v.25h.09l.07-.18.17-.09.26,0,.09.08.1.25h.17l.07-.17.08-.18h.08l.27.07h.17l.16-.1v-.09l-.09-.08V616l.08-.09v-.34h-.17l-.35,0-.5.2-.51,0-.18-.07-.1-.25v-.26h.34V615l-.09-.08-.25.18H1259l-.09-.08V615l.08-.09h.08v-.09l-.1-.16v-.09l.08-.09.08-.09.16-.1v-.08l-.1-.17-.18-.24v-.17l.34,0,.34-.1.08-.09.07-.26.08-.1h.25l.1.25.11.25.1.25.18.17h.08l.17-.1-.1-.16.08-.18.08-.09.16-.18,0-.26-.18-.16,0-.34.08-.18h.08l.51-.12.08-.09.16-.18.26-.1.17.07.28.33.18.08.25-.1.07-.27.07-.26.16-.09.18.07.18.16.1.17.18.16h.17l.07-.26h.17l.18.07.27.33.38.49.12.6.11.42.26.07.26.07.18.16-.06.35-.41.28-.43.11-.34-.06-.45-.24-.34-.06-.51.2Zm-6,4.57-.09-.08.08-.1h.17l.09.08v.09h.17l.08-.09v-.17h.09l.16-.09.08-.09.08-.09h.26l.08-.09.08-.09.26.07.09.08v.08l-.08.1h-.09l-.16.1-.33.27-.08.09h-.26l-.08.09h-.26l-.07.17h-.26v-.34Zm.19-1.13h-.08l-.09-.08.08-.09v-.17h.25l.08-.09V618l.1.17h-.09l-.08.09Zm1.4,7.56h.26v-.17l.07-.18h.09v.08l.08-.09h.17l.08-.09h.18l.09.08h.08v.25h.08v.08l-.08.1-.09-.09h-.09v.09h-.09l-.18-.07v.08l-.17.1-.08.09v.17l-.08.09h-.08v-.08h-.25V626l-.1-.08Zm-1.52-.94v-.09l-.09-.08-.09-.08v-.09l.08-.09h.09l.18.16.09.08v.09h.17l.07-.18v-.09h.17l.09.17v.17l0,.26.09.16,0,.17h.08l.09.08-.07.18v.08h.09l.08-.09v-.09l.08-.09h.09v.09l0,.26v.08l-.16.1h-.09l-.08.09.09.08v.35l.18.07v.09h-.85l-.17.09h-.17l-.09-.08v-.08l0-.17.08-.18.17-.09V626l-.1-.16-.1-.25,0-.35v-.08l.08-.09V625l-.09-.08Zm-8.9.53v-.09h.09l-.1-.08v-.09l.08-.09h.17l.09.08.09.08v.09l.08-.09h.17v.08l.09.08-.08.09H1249v.17l-.08.09h-.17v.09h-.17l-.08.09h-.08l-.1-.08-.09-.08v-.17l.08-.09Zm.78,4.33h.09v0h.08v.09h-.17Zm.87.12v-.17h.08l.09.08V630h-.17v-.17Zm4.92,4.86.76-.3.42-.11.26,0,.17.08v.08l-.08.18,0,.25,0,.35v.17l-.08.17h-.08l-.09-.08-.17.09-.08.1-.07.17v.34h-.17l-.35-.06h-.26l-.09-.08v-.17l.16-.18v-.17l-.17-.08-.1-.16-.27-.16V635l-.09-.08.08-.09Zm4-3.42-.09-.08-.09-.08.08-.09h.34v.17l.09.08-.08.09h-.17Zm.52.14.08-.09h.26v.08h.09v.08h-.08v.08h-.08v.08h-.08v.08l-.08.1v.08h-.17V632h-.08l-.1-.08v-.08h.08v-.08h.09l.08-.09v-.26Zm4.8-.11.17-.1.16-.09.18,0,.09.09.09.08h-.09v.09h-.09l.09.08.09.08-.08.09h-.08l-.08.09h-.09l-.09-.08h-.17v-.08h-.08v-.08l-.09-.08Zm2.69-.94.25-.18.26,0h.17l.09.08v.09l-.08.09v.17l-.08.09h-.08v.43l-.08.09v.09l-.18-.16-.09-.08-.1-.17v-.26l-.09-.08v-.17ZM1309.61,675l.32-.28.07-.26v-.6l.25-.18.16-.1.41-.28.26,0,.44.23.1.17-.08.18-.15.35-.32.28-.24.35-.16.27-.24.27-.25.1H1310l-.26-.07-.1-.25Zm66.71,9.91v-.17h.09l.24-.19h.26v.35l.1.16h-.09v.08l-.17.1h-.17l-.09-.08v-.17h-.09Zm-6.16-6.76.36.24h.17l1.44-.34.6-.13.33-.19h.25l.18.07.1.25v.35l0,.34.19.25.18.16v.17l-.25.1h-.09l-.07.18v.26l.11.33.18.17.35.15.7.21.61.14.1.16v.43l-.14.52-.31.45-.17.1h-.26l-.78-.12-.46-.57-.36-.24-.43-.06-.42.11-.35-.15-.81-.55-.62-.31-.19-.33,0-.6.08-.18v-.17l-.19-.24-.44-.24-.09-.08,0-.25v-.17l.25-.19Zm-7.73-31.56.43,0,.34,0,.25-.1.17-.09h.09l.08-.09h.08v.09h.25l.25-.1.34-.1.09.08v.17l.1.25.1.17.09.08-.08.17v.6l-.16.1-.17.09V648l.19.25.18.07v.34l-.17.1-.34,0h-.17l-.18-.07v-.26l-.26-.07-.44-.06h-.34l-.1-.17-.09-.08.08-.17,0-.26-.09-.17-.1-.16-.18-.16-.18-.16-.1-.26-.1-.16Zm1.14-121.81.19.16h.17v-.08l.08-.1.07-.26.17-.09h.08l.18.08.18.07.09.08.09.17v.08h.17v.09l.1.08-.08.09-.09.09h-.17l-.09-.08-.08.09h-.17l-.08.09h-.17l-.35-.06-.09-.17-.09-.08-.09-.08-.1-.08v-.08ZM1358.29,493l.24-.27.35,0,.26.07.18.25.11.25v.25l-.07.18-.17.1-.34.1-.35-.06-.1-.25-.19-.34Zm7.43-5.08.33-.11.27.07.26.16.18.16.11.34v.17l-.16.26-.24.28-.34,0-.35-.15-.19-.25-.1-.25,0-.34Zm-2.56-6.8v-.17l.17-.1.16-.1h.17l.09.08.1.17-.08.09v.09l-.08.09v.08l-.08.09h-.17v-.08l-.26-.07v-.17Z"/><path class="cls-4" d="M1245.5,501.5s0,4,1,4,1,2,1,4a20.34,20.34,0,0,0,1,5s3-2,4-4,2-5,1-8,0-4-3-4S1245.5,500.5,1245.5,501.5Z"/><path class="cls-4" d="M1235.5,522.5a1.39,1.39,0,0,0,0,2c1,1,2,0,3,1s0,3,1,3,3-1,3-2-1-4-2-4S1237.5,521.5,1235.5,522.5Z"/><path class="cls-1" d="M1288.5,349.5c0,1,0,4,1,4s4-2,5-3a4.94,4.94,0,0,0,1-3s-3-1-4,0A14.39,14.39,0,0,1,1288.5,349.5Z"/><path class="cls-1" d="M920.5,762.5s-4,1-4,3-1,4,0,4,2,3,2,3a3.1,3.1,0,0,0,2-1c1-1,1-2,2-4a10.87,10.87,0,0,0,1-5C923.5,761.5,920.5,762.5,920.5,762.5Z"/><path class="cls-1" d="M908.5,767.5s-1-1-2,1-3,2-2,3,5,2,6,1,3,0,3-2,1-5-1-5S908.5,767.5,908.5,767.5Z"/><path class="cls-1" d="M867.5,772.5s-1,2,0,3,2,2,4,1a25.67,25.67,0,0,1,5-2c3-1,2-4,1-4s-4-2-6-1a12.38,12.38,0,0,0-3,2Z"/><path class="cls-4" d="M938.5,707.5l1-2a3.55,3.55,0,0,1,3,2,9,9,0,0,1,1,5c0,2-3,3-4,3s-1-1-1-2Z"/><path class="cls-4" d="M947.5,714.5l-3,3c-1,1,1,4,1,5s0,4-1,4-2-1-4-2-4-1-5,1-1,6-1,7,1,4,0,5,2,2,3,2,6-1,6-2,2-10,3-7,2,5,2,6,2,5,3,5,2-2,3-3-4-4-4-4a15.77,15.77,0,0,0,4-1c3-1,5-2,4-4s-5-1-3-4,2-4,3-5a3.1,3.1,0,0,1,2-1s3-3,0-4-3-2-7-2A14.52,14.52,0,0,0,947.5,714.5Z"/><path class="cls-4" d="M1310.5,213.5s-1,5,1,5h5c2,0,3-3,2-3s-2-2-2-2S1311.5,212.5,1310.5,213.5Z"/><path class="cls-4" d="M1317.5,202.5s-1,4,1,4h5c2,0,3,0,3-1s-1-1-2-2S1318.5,201.5,1317.5,202.5Z"/><path class="cls-5" d="M1320,279a1.38,1.38,0,0,0,0,.35,3.5,3.5,0,0,0,.12.63.82.82,0,0,0,.2.38.86.86,0,0,0,.31.29.8.8,0,0,0,.42.13.77.77,0,0,0,.45,0l.27-.11a1.1,1.1,0,0,0,.4-.4l.12-.27a1.22,1.22,0,0,0,0-.6,1.25,1.25,0,0,1-.08-.32l0,.29a1.36,1.36,0,0,1,0-.35.84.84,0,0,0-.1-.44,1,1,0,0,0-.59-.59.94.94,0,0,0-.43-.1l-.3,0a1.2,1.2,0,0,0-.5.29l-.18.23a1.13,1.13,0,0,0-.15.57Z"/><path class="cls-5" d="M1323.52,217.34l1.87-.35a1.2,1.2,0,0,0,.67-.52,1.15,1.15,0,0,0,.11-.87,1.16,1.16,0,0,0-.52-.67l-.26-.11a1,1,0,0,0-.6,0l-1.87.35a1.13,1.13,0,0,0-.67.52,1.11,1.11,0,0,0,.4,1.54l.27.11a1,1,0,0,0,.6,0Z"/><path class="cls-5" d="M1323.89,191.66h2.39a1.13,1.13,0,0,0,1.12-1.13,1.14,1.14,0,0,0-1.12-1.12h-2.39a1.13,1.13,0,0,0-.79.33,1.11,1.11,0,0,0-.33.79,1.15,1.15,0,0,0,1.12,1.13Z"/><path class="cls-5" d="M1305.75,200.91v.35a.82.82,0,0,0,.09.43.88.88,0,0,0,.24.36.77.77,0,0,0,.36.23.8.8,0,0,0,.43.1l.3,0a1.1,1.1,0,0,0,.5-.29l.17-.23a1,1,0,0,0,.16-.56v-.35a.94.94,0,0,0-.1-.43,1,1,0,0,0-.59-.59.84.84,0,0,0-.44-.1l-.3,0a1.07,1.07,0,0,0-.49.29l-.18.23a1.09,1.09,0,0,0-.15.56Z"/><path class="cls-5" d="M1313.92,307v1.19a.8.8,0,0,0,.09.43,1.1,1.1,0,0,0,.6.6.8.8,0,0,0,.43.09l.3,0a1.1,1.1,0,0,0,.5-.29,1.17,1.17,0,0,0,.33-.79V307a1,1,0,0,0-.1-.44,1,1,0,0,0-.59-.59,1,1,0,0,0-.44-.1l-.3,0a1.16,1.16,0,0,0-.49.29,1.18,1.18,0,0,0-.33.8Z"/><path class="cls-5" d="M1319.41,305.88l.51-.51a.88.88,0,0,0,.24-.36.83.83,0,0,0,.09-.44.82.82,0,0,0-.09-.43.88.88,0,0,0-.24-.36l-.22-.18a1.16,1.16,0,0,0-.57-.15l-.3,0a1.1,1.1,0,0,0-.5.29l-.51.51a.77.77,0,0,0-.23.36,1,1,0,0,0-.1.44.94.94,0,0,0,.1.43.77.77,0,0,0,.23.36l.23.18a1.1,1.1,0,0,0,.57.15l.3,0a1.07,1.07,0,0,0,.49-.29Z"/><path class="cls-5" d="M1323.62,319.58a1.36,1.36,0,0,0-.1.21c0,.06-.06.12-.08.19a2.22,2.22,0,0,0-.06.44c0,.11,0,.23,0,.35l0-.3a.53.53,0,0,1,0,.17l.11-.27a.51.51,0,0,1-.09.16l.17-.22-.13.13.23-.18-.21.13.27-.12a1.81,1.81,0,0,1-.31.09l.29,0a3.26,3.26,0,0,1-.76,0,.91.91,0,0,0-.43.1.77.77,0,0,0-.36.23,1.15,1.15,0,0,0-.33.8,1.11,1.11,0,0,0,.33.79l.23.18a1.09,1.09,0,0,0,.56.15,3.29,3.29,0,0,0,.7,0,2.26,2.26,0,0,0,.58-.09l.38-.16.12-.07a2.43,2.43,0,0,0,.32-.24l.09-.09a1.83,1.83,0,0,0,.24-.31,1,1,0,0,0,.11-.24,1.09,1.09,0,0,0,.1-.25c0-.14,0-.28,0-.42s0-.2,0-.31l0,.3a.85.85,0,0,1,0-.17l-.11.27a.16.16,0,0,1,0-.07,1.15,1.15,0,0,0,.11-.87,1.12,1.12,0,0,0-.52-.67,1.08,1.08,0,0,0-.86-.11,1.19,1.19,0,0,0-.67.51Z"/><path class="cls-5" d="M1293.77,353.49h-.24a2.25,2.25,0,0,0-.52.08l-.24.1-.23.1-.11.06-.31.25a.77.77,0,0,0-.23.36.8.8,0,0,0-.1.43.84.84,0,0,0,.1.44.77.77,0,0,0,.23.36l.23.17a1,1,0,0,0,.57.16l.29,0a1.2,1.2,0,0,0,.5-.29l0-.05-.22.18.23-.14-.27.12a1.29,1.29,0,0,1,.28-.08l-.3,0h.29a.8.8,0,0,0,.43-.09.88.88,0,0,0,.36-.24.77.77,0,0,0,.23-.36.8.8,0,0,0,.1-.43l0-.3a1.1,1.1,0,0,0-.29-.5l-.23-.17a1,1,0,0,0-.56-.16Z"/><path class="cls-5" d="M1288,355h-.6a.91.91,0,0,0-.43.1.86.86,0,0,0-.36.23,1,1,0,0,0-.24.37.78.78,0,0,0-.09.43l0,.3a1.07,1.07,0,0,0,.29.49l.23.18a1.09,1.09,0,0,0,.56.15h.6a.8.8,0,0,0,.43-.09,1.1,1.1,0,0,0,.6-.6.8.8,0,0,0,.09-.43l0-.3a1.1,1.1,0,0,0-.29-.5l-.22-.17a1.17,1.17,0,0,0-.57-.16Z"/><path class="cls-5" d="M1284.27,363.15a3.57,3.57,0,0,0,.68.27,4.3,4.3,0,0,0,.7.13,3.66,3.66,0,0,0,1.19-.07.93.93,0,0,0,.38-.2.89.89,0,0,0,.29-.32,1.15,1.15,0,0,0,.11-.87,1.11,1.11,0,0,0-.51-.67l-.27-.11a1.22,1.22,0,0,0-.6,0l-.18,0,.3,0a2.81,2.81,0,0,1-.71,0l.3,0a3,3,0,0,1-.71-.19l.27.11-.11-.05a.8.8,0,0,0-.42-.13.74.74,0,0,0-.44,0,1.14,1.14,0,0,0-.68.51,1.2,1.2,0,0,0-.11.87,1.1,1.1,0,0,0,.52.67Z"/><path class="cls-5" d="M1290.31,363.23a8.4,8.4,0,0,0,1.87.12,3.84,3.84,0,0,0,1-.19,3.57,3.57,0,0,0,1.1-.64,1.12,1.12,0,0,0,0-1.59,1.11,1.11,0,0,0-.8-.33,1.19,1.19,0,0,0-.79.33l-.07.05.23-.17a2.38,2.38,0,0,1-.44.25l.27-.11a3,3,0,0,1-.65.18l.3,0a6.84,6.84,0,0,1-1.69-.06l.3,0h0a.86.86,0,0,0-.45,0,.9.9,0,0,0-.42.13,1.17,1.17,0,0,0-.51.68,1.12,1.12,0,0,0,.78,1.38Z"/><path class="cls-5" d="M1261.26,419.29a2.77,2.77,0,0,0,.87.32,3.93,3.93,0,0,0,.59.06,4.2,4.2,0,0,0,.62-.06.87.87,0,0,0,.38-.2,1.06,1.06,0,0,0,.43-.74.94.94,0,0,0,0-.44,1.15,1.15,0,0,0-.52-.68l-.27-.11a1.22,1.22,0,0,0-.6,0h0l.3,0a1.88,1.88,0,0,1-.53,0l.3,0a1.69,1.69,0,0,1-.49-.13l.27.11-.16-.07a.83.83,0,0,0-.41-.13.77.77,0,0,0-.45,0,.81.81,0,0,0-.39.2.8.8,0,0,0-.28.32,1.1,1.1,0,0,0,.4,1.53Z"/><path class="cls-5" d="M1291.56,385.46a6.35,6.35,0,0,0,2.86-.45,1.22,1.22,0,0,0,.67-.51,1.2,1.2,0,0,0,.12-.87,1.16,1.16,0,0,0-.52-.67,1.07,1.07,0,0,0-.87-.11,6.07,6.07,0,0,1-1.39.37l.29,0a5.61,5.61,0,0,1-1.16,0,1.18,1.18,0,0,0-.8.33,1.2,1.2,0,0,0-.33.8,1.16,1.16,0,0,0,.33.79,1.25,1.25,0,0,0,.8.33Z"/><path class="cls-6" d="M1183.5,572.5c.57,0,1.36,1.64,3,0,2-2,3-5,5-4s4,4,3,5-4,2-5,3-5,2-6,1a4.94,4.94,0,0,1-1-3S1182.5,572.5,1183.5,572.5Z"/><path class="cls-5" d="M1091.91,767.84a3.86,3.86,0,0,1,2.16.53,5.75,5.75,0,0,1,1.67,1,3.56,3.56,0,0,1,1,2.9,3.39,3.39,0,0,1-.53,1.47c-.07.12-.12.23-.27.22s-.26-.15-.36-.22c-.26-.17-.5-.35-.75-.54a5.09,5.09,0,0,0-3-1.41,5.39,5.39,0,0,0-3.65,1.84c-.33.34.2.87.53.53,1-1,2.41-2,3.88-1.5a5.69,5.69,0,0,1,1.7,1,5,5,0,0,0,1.62,1c.6.13,1-.54,1.21-1a4.36,4.36,0,0,0,.43-1.7,4.25,4.25,0,0,0-1.22-3.21,7,7,0,0,0-2-1.24,4.45,4.45,0,0,0-2.55-.51c-.48.07-.27.79.2.72Z"/><path class="cls-5" d="M1084.45,779.15a2.38,2.38,0,0,0,2.2,0,6.3,6.3,0,0,1,2.14-.72,2.59,2.59,0,0,1,2,.61,5.34,5.34,0,0,1,1.16,1.89c.18.44.9.25.72-.2-.58-1.4-1.39-2.78-3-3a4.59,4.59,0,0,0-2.2.28c-.39.14-.75.34-1.13.52a1.59,1.59,0,0,1-1.44,0c-.43-.2-.82.45-.38.65Z"/><path class="cls-5" d="M1084.63,782c0,1.25,1.39,1.86,2.44,2.15a7.11,7.11,0,0,0,4,0,.37.37,0,0,0-.2-.72,6.43,6.43,0,0,1-3.26.11c-.73-.17-2.15-.56-2.19-1.51a.38.38,0,0,0-.75,0Z"/><path class="cls-5" d="M1126.76,791.4c.32,1.85,1.22,4.3,3.17,5a7,7,0,0,0,1.43.28,1.65,1.65,0,0,0,1.33-.27,2.93,2.93,0,0,1,1.19-.73,2.27,2.27,0,0,1,1.54.13c.44.2.82-.45.38-.65a3.15,3.15,0,0,0-2.48-.09,3.39,3.39,0,0,0-1,.69c-.39.35-1,.17-1.5.08a3,3,0,0,1-1.29-.47,3.6,3.6,0,0,1-.93-1.12,8.71,8.71,0,0,1-1.08-3c-.09-.48-.81-.28-.73.2Z"/><path class="cls-5" d="M1132.49,785.74a1.75,1.75,0,0,0,.92,1.79c.71.45,1.66.46,2.27,1.08a5.07,5.07,0,0,1,1.06,2.23,4.53,4.53,0,0,1,0,2.75c-.16.46.57.65.73.2a6.39,6.39,0,0,0-.71-4.95,3.07,3.07,0,0,0-1.7-1.45c-.61-.23-2-.52-1.85-1.45.08-.47-.64-.68-.73-.2Z"/><path class="cls-5" d="M1140.32,783.9a17.28,17.28,0,0,1,2.45,4.3,5.26,5.26,0,0,1,.08,4.61,11,11,0,0,1-1.28,1.82c-.52.61-1,1.29-1.86,1.33a6.45,6.45,0,0,1-2.26-.36c-.26-.08-2.54-.87-1.8-1.43.38-.28,0-.94-.38-.65a1.15,1.15,0,0,0-.17,1.71,5.16,5.16,0,0,0,2.57,1.21,4.8,4.8,0,0,0,2.95.08,5.9,5.9,0,0,0,1.94-1.94,7.56,7.56,0,0,0,1.41-2.52,5.37,5.37,0,0,0-.11-3,17.49,17.49,0,0,0-3-5.69c-.3-.38-.82.15-.53.53Z"/><path class="cls-7" d="M512.61,561.21s2.89.29,4.89,4.29,6,2,8,3,5,4,7,6,4,3,4,5-2,3,0,4,4-1,5-2,1-5,3-5,5-2,6-2,5,2,5,4,0,4,1,5,2-2,2-2l2-3s-1-1,2-2,3,0,4-2,1-4,0-5a1.88,1.88,0,0,1,0-3c1-1,4-1,6,1s3,1,4,4,0,8,1,9,3,1,5,1,5,3,6,5,3,5,5,5,2-2,3,0,1,3,3,3,5,0,6-1-2-1-3-2-4-4-4-5,1-7,1-8a10.56,10.56,0,0,1,2-5c1-1,4-1,4-2s1-1,3-1,2,2,3,4,2,5,3,5,3,2,3,2,4,6,4,7-1,4,2,4,5-1,5-2c0,0,0-5,2-8s2-7,2-10,6-9,6-11,4-5,4-5,3-2,5-2,8,4,10,4,5,2,5,2,3,3,5,3,5,4,5,7,0,3,1,4,3,1,5,2,2,2,4,2,3,0,4-1-2-3-2-6-1-9-1-10,0-1,2-3,4-2,3-5-5-9-2-12,3-5,3-5a7.47,7.47,0,0,1,3-3c2-1,5-2,7-1s5,4,7,3,12-2,13-2,2,2,1,5-2,5,0,5,2-2,5-2,5-3,5-4,2-4,4-2,0,6,1,8,1,4,2,4a5.36,5.36,0,0,0,4-3c1-2,1-6,1-8s1-3,3-5,3-2,4-5,4-4,5-2,0,4,1,6,1,4,3,5a9,9,0,0,0,5,1c2,0,5,0,6,3,3,1,2,3,3,4s3-1,4-1a5.36,5.36,0,0,1,4,3c3,0,3,4,3,4s1,3,3,3,5-1,6,1,1,7,2,8,0,3,0,5-1,5-2,6-1,4,0,5,4,1,6,1,6-4,7-5,1-2,2-3,5-1,5,0-1,6-2,7-5,4-5,5-1,5-2,5-1,3,0,4,4,2,4,3,1,3,2,2a27.68,27.68,0,0,0,5-8c1-3,2-7,6-6s5,2,7,3,4,2,3,5-2,6-2,9,1,8,2,8,5,1,6,0,4-2,5-4,1-4,4-4h5a7.81,7.81,0,0,1,5,2c2,2,2,5,2,8s1,4,3,6,2,4,2,6-5,5-6,7-2,6,0,7,2,2,2,2a2.77,2.77,0,0,1,0,4c-2,2-4,8-4,8s0,6-3,6-8,0-9,2,0,4-1,6-5,7-7,8-6,2-5,5a37.11,37.11,0,0,1,2,9c0,2,0,2,1,4s2,4,2,6-1,6-1,8,1,7-1,9-8,5-10,6-10,4-11,8,0,5,3,7,8,2,8,3,2,2,3,2a4,4,0,0,1,4,2,9,9,0,0,1,1,5c0,2,2,5,2,7s1,5,2,6,2,4,3,6a12.68,12.68,0,0,1,1,6,9,9,0,0,0,1,5c1,2,1,4,2,5s2,1,3,2,1.86,2,1.86,2"/><path class="cls-7" d="M856.15,602.28s4.35-2.78,6.35-3.78a12.05,12.05,0,0,0,5-5c1-2-2-4-3-7s-3-6-2-8,5-4,8-4,7,1,8,0,2,0,5,0,7,3,8,4,2,5,4,5,2,3,3,3,4,1,6,0,6-2,4-7-2-6-2-7,0-4-2-6-2-4-1-5,2-1,4-2,5-2,5-4-1-3,0-4,3-3,5-2,2,2,3,3,1,2,2,3,0,5,3,5,6-1,7-1h6c2,0,5,2,6,1s-1-1,2-2,4-2,4-3a43.31,43.31,0,0,1,1-5s2-2,4-1,3,4,3,6a7.64,7.64,0,0,0,2,5c1,1,0-1,3-1a14.45,14.45,0,0,0,7-2c2-1,3,0,5,0s5,0,6-2,0-4,2-4h4c2,0,7,0,7,1s1,6,1,8v4c0,2-3,2-5,3s-7,3-8,5-2,3-2,7,1,4-1,6-5,3-6,4-3,2-2,3a7.58,7.58,0,0,0,4,2c1,0,6,1,6,2a3.19,3.19,0,0,0,3,3c2,0,7,1,8,0s6-6,8-6,3,2,5,1,4-6,6-7,5-3,7-3,8-3,10-4,6-2,7-1,2,4,4,5,3,2,6,3,3,2,5,2h4c1,0,1-4,1-5s-4-4-5-6,0-4,0-6,3-4,4-5,3-1,6-1,4,2,5,2a43.31,43.31,0,0,1,5,1,13.38,13.38,0,0,0,5-1c2-1,5-3,7-1s3,3,5,4,3,5,4,5,2-1,3,0,2,0,4-1,2-3,5-2,2,4,3,6,5,7,5,8,6,9,6,13-2,9-1,11,2,5,4,6,1,3,4,5,4,3,5,5,4,2,4,3,3,2,3,2"/><path class="cls-7" d="M1057.51,566.53s-2-3-2-5,1-4,0-6,1-7,2-7,2-3,3-3,2-2,1-4-3-4-2-6,3-4,2-7-1-5,1-7,4-2,4-3-3-6-2-8,4-1,5-2,4-5,5-6,2-5,2-6-2-6-2-9,1-4,2-6,1-2,3-3,3-2,3-3-2-2-3-3-4-3-4-5v-7c0-2-1-7,0-8s3-2,5-4,2-3,6-3,5-1,8-3,2-6,4-9,4-6,3-8a20.73,20.73,0,0,1-2-6c0-1-2-6-3-6s-3-1-3-2,3-3,4-5,4-2,4-4,2-6,2-7,4-5,6-7a11,11,0,0,1,6-3c1,0,2-3,3-1s0,5,3,6,6,1,6,0,2-5,2-7-2-3,1-4a35.53,35.53,0,0,1,10-2c3,0,3-2,6-3s2-4,5-4,4,0,4-2,1-3-1-4-4-2-4-3-1-4,4-4,6,2,7,2,3-3,4-3,4,2,5,3,0,5,1,6,0,3,0,5-3,5,0,6,3,2,5,2,4,3,5,3,1,2,1,4-1,5,0,7,1,4,2,5,4,1,6,1h9c3,0,5-4,7-5s8-10,9-10,5,0,6,2,3,9,4,10,2,6,4,6,3,1,5-1,5,0,6-2,5-4,6-4,3-4,10,0,4,4,6,5a9.06,9.06,0,0,1,3.29,3.57"/><path class="cls-7" d="M1229.5,230.5s-7,3-8,3-2,1-3,3-1,4,0,7,0,1,0,3-3,6-4,9-7,8-7,11-2,3-4,7-1,6-5,8-9,5-10,5-4,3-5,5,0,4-4,4-8-2-11,0-6,5-8,5-4,1-4-1-2-5-5-6-6-3-8-3-8,4-11,9-6,11-6,12-1,4,4,6,6,2,7,4,1,5,5,6,9,1,9,4-2,4-1,7,6,9,6,9-1-1,0,1,2,5,1,7-1.21,2.1-1.21,2.1"/><path class="cls-7" d="M697.84,532.09s5.66-4.59,5.66-14.59-3-17-2-22,3-7,4-10,1-4-1-5-8-4-9-4-1,2-2,3-2,4-4,3-5-2-5-3,2-3,3-6-1-5-1-6-1-4,0-4h1s3,0,4-2,2-5,3-5,1-2,2-2,2,4,2,5,0,3,1,3,5-4,6-5,4-2,6-4,5-5,6-7-2-1-2-3-4-7-4-8,0-7-1-9-1-8-1-9,1-7-2-8-4-2-4-6,1-8,1-10-2-3-3-4-4-2-4-5,1-7,2-8,1-4,1-7-1-7-2-7-4-3-4-4a11,11,0,0,0-3-6c-2-2-2-3-3-3s-2,1-3,2-3,0-4-1-4-5-4-7,0-5,1-6,5-3,5-4,4-4,4-7,3-3,4-4,5-1,9-2,5-2,9-3,11,0,12,1,4,2,5,3,3,3,6,3,6,1,7,1a10.87,10.87,0,0,0,5-1c2-1,5-3,5-4s2-3,3-3a10.56,10.56,0,0,0,5-2c1-1,0-3-2-3s-3,0-3-2,0-6,1-6,3-1,4-1,2,2,4,2,4-1,4-2,2-3,2-3a22.69,22.69,0,0,1,4-1c1,0,2,3,4,2s3-4,2-5-5-1-6-1-2,2-4,1-6-2-7-3-5,0-5,0l-4,2-3,1-4-1s-3-2-3-4-2-4-2-4l-2-2s-1-6,0-7l6-6c1-1,2-4,2-4s0-5-1-5-6,2-7,2-2,1-3,1-4-2-3-4,3-3,3-4-2-7-2-9,2-4,2-6v-9c0-2-1-6-2-7s-5-2-5-2-4,0-6,1-8,0-8-2,0-9-3-10-3,0-6,1-8,2-10,1-5-1-7-1-2-1-2-1-2-10-3-10-12-2-13-3l-2-2s-11-3-11-5-8-9-9-9a120.83,120.83,0,0,0-14,3c-3,1-6,4-8,3s-5-2-7-4-9-8-10-8-5,0-3,3,7,5,8,8-1,4-1,5-2,0-2,2,0,6,1,7,5,0,5,2,0,5-2,6-6,5-7,6-5,6-5,9,0,5-2,6-3-1-6,0-5,4-6,5-7,7-7,8-2,3,1,4,10,3,10,3h1c1,0,4,3,4,6s-1,5,1,5,8,0,9,3,2,7,1,10-3,10-6,12-5,7-6,10-4,11-4,11-2,5-4,5-4-2-8-2-13,3-14,3-1,2-2,3a14.39,14.39,0,0,0-2,3s-6,1-7,1-3,3-5,6-4,9-4,12-1,10-1,12a44,44,0,0,1-2,10c-1,3-2,5-4,6s-5,0-6,1-2,0-3,2a9,9,0,0,0-1,5v5c0,1,3,3,5,2s8-4,10-3,5,2,6,3,4,3,4,4a57.55,57.55,0,0,0,2,10c1,3,1,4,4,5s5,1,5,4-1,7-1,9,1,5-2,5-7-1-8,0-3,1-4,3-2,4-1,4,5,3,6,4,3,2,4,5,4,5,2,7-4,3-2,4,6,1,7,2a31.12,31.12,0,0,1,4,6c1,2,0,3,3,4s3,2,4,4,1,6-3,10-6,5-7,8-2,6-2,9-1,7-5,8-6-1-7,3,3,9,2,12-3,7-7,9-13,8-16,7-5,0-7,2-6-1-7-2-2-8-5-8-4,2-5,3,0,4-1,8-1,3-3,5-4,3-4,4a3.43,3.43,0,0,1-1.07,2"/><path class="cls-7" d="M412.51,434.86a18.36,18.36,0,0,0,5-1.36c2-1,5-4,6-5a7.64,7.64,0,0,1,5-2c2,0,6,1,7-1s-1-4,0-5-4-4-3-6,3-4,2-6-1-1-1-3,3-5,3-6,1-2,1-4,2-8,4-10,5-3,5-6-5-10-5-13,1-12,2-13,3-1,5-5,8-20,10-23,4-8,6-11,2-6,4-7a9,9,0,0,1,5-1c2,0,4,1,6,1a7.64,7.64,0,0,0,5-2c1-1,1-5-2-8s-5-9-6-10-6-2-8-1-2,0-3-3-4-8-5-10,0-4,0-7,0-5,2-5,4-3,6-3,4-3,5-4,2-3,4-5a20.92,20.92,0,0,1,6-4,14.86,14.86,0,0,1,6-1c1,0,2,4,5,1s3-3,5-4,6-1,7,0l4,4c1,1,2,4,5,4s8-1,10,1,8,5,10,4,3-3,7-4,6-2,7-2h4c1,0,1,1,2,4s2,1,5,4,3,7,5,9,3,4,5,1,5-5,6-8,3-4,3-6a2.63,2.63,0,0,1,2-2.46"/><path class="cls-7" d="M444.11,193.12s5.39,5.38,5.39,7.38a4.3,4.3,0,0,0,4,4c2,0,5,3,6,5s2,6,4,7,7,3,7,3,7-5,7-6,3-5,4-5,0,1,1,3,2,4,2,6-1,5,1,6,4,2,5,4,2,1,0,4-5,2-4,4,1,1,3,1,5-2,5,1,1,2,2,3a18.47,18.47,0,0,0,1.82,1.61"/><path class="cls-8" d="M737.71,121.62S731,126,731,128s-1,3-2,6-2,6-2,9,0,8,1,11,2,6-2,7-17,2-19,3-4,4-8,4-7-1-8,2-4,5-2,6,5,7,6,6l1-1h1s5,4,5,6-1,4-1,9,2,12,0,14-7.24,6.19-7.24,6.19"/><path class="cls-8" d="M734.18,231.9s4.32-1.4,5.32-3.4,2-3,5-3,8,0,9-1a3.1,3.1,0,0,0,1-2l2-2s3-3,5-3,5-3,7-4,5,0,5,2,0,2,1,4,2,2,3,4,4,4,5,3,3-5,5-3,2,6,4,6,3,2,5,2,4,1,7,0,4,0,7-3a32.78,32.78,0,0,0,6-8c1-2,3-6,5-8s5-5,7-3,0,1,3,2,7,1,7,3,2,7,1,9-2,3-3,6-2,8-1,10,2,4,4,4,9,3,11,3,9,1,10,1a3.49,3.49,0,0,0,2-1,28.79,28.79,0,0,0,7.14-1c2.86-1,5.86-1,9.86-2s7-2,8-4,1-12,1-13-1-1-3-4-6-4-3-7,5,0,6,0h1s4,0,4-1a7.56,7.56,0,0,0-1-4c-1-2-1-5,0-6s3-2,2-5-1-8-1-9,3-8,4-10,3-6,3-8v-7c0-3-2-3-2-5s0-4,1-5"/><path class="cls-8" d="M731.68,535.44a41,41,0,0,0,1.82-6.94c1-5,1-7,2-9s2-7,3-9,4-8,4-9,4-13,6-16,5-5,6-7,4-9,8-10a51.33,51.33,0,0,0,10-4c2-1,3-8,6-11s4-6,6-10,5-5,4-12-1-9-3-12-2-5-3-7-5-2-3-4,1-2,3-3,2-3,4-6,5-7,7-8,5-1,9-3,5-3,6-4,1-5,4-4,4,3,6,3,6-4,7-4a22.52,22.52,0,0,0,7-1c3-1,10-2,11-3s3-2,4-3,3-2,2-5-3-7,0-7,3,1,6,0,4-2,6,0,3,2,6,2,4-1,5-3a27.36,27.36,0,0,1,4-5s5-1,7,0,2,3,5,1,5-2,9-4,1-1,4-3,6-4,7-2a8.54,8.54,0,0,1,0,7c-1,2-2,5-4,6s-3,1-6,0-5,0-5,2,0,6,1,7,3,6,4,4,4-4,5-3,0,4,2,5,3,1,6,3,5,2,9,3,9,0,10-1,1-2,4-4,5-4,6-2,1,3,3,6,6,4,5,7,1,4-3,5-7,2-7,4a23.53,23.53,0,0,1-2,8c-1,2-7,6-8,6s-5,2-4,4a18.54,18.54,0,0,1,2,7c0,2-1,1-2,3s-4,3-4,6-1,7,0,9,2,8,2,8,1,2,4,1,3-3,5-3,3,2,3,5-1,6,0,8,1,4,2,5,3,0,3,4-1,14,1,16,3,3,7,3,6,0,6,2,1,3,0,6-3,7-4,8-3,2-3,3v4c0,1,0,2,1,2s2-1,5-2,4-2,6-2,3,2,2,3-4,2-5,3-1,5-1,7,2,4,0,7-3,5-4,6a3,3,0,0,0,0,4,7.64,7.64,0,0,1,2,5c0,2,1,8,1,8"/><path class="cls-8" d="M945.45,156s1,10.54-3,14.54-5,5-6,9,1,6,0,10-1,3,1,6,4,6,2,8-7,1-9,3-5,5-5,7,0,8,2,12,5,9,3,14,2,10,2,10,1,1,7,2,9,2,10,4,2-1,6,0,7,2,8,7-4,8-3,12,2,7-1,9-3,3-3,4,2,2,1,6-1,4-1,7,0,3-1,4a10.69,10.69,0,0,1-5,3c-3,1-4,2-5,5s0,3-1,5,1,3,1,6-2,4-3,6-3,2-2,4,2,3,1,4-3-1-5,0-3,3-5,4-4,2-5,4-1,3,0,4,3,0,4,2,2,2,4,4,3,2,4,4,3,0,2,4,0,4,0,6a6.48,6.48,0,0,1-.84,3.29"/><path class="cls-8" d="M1079.6,92.92s6.9,4.58,7.9,6.58,1,4,1,7-1,4,1,6,3,1,6,3,5,4,4,6a20.92,20.92,0,0,1-4,6c-2,2-5,6-5,8s1,4,0,6-1,5-3,5-5-1-5,0v6c0,2,2,4,2,7s3,5,4,6,3,2,7,2,12-5,17-5,7,2,8,5,0,9,0,14-1,8-5,10-8,1-8,4,0,7-2,8-1-2-5-2-5-5-5,2,1,10,0,15-5,4-8,7-3,4-8,5-7-1-6,5,5,6-2,9-8,1-10,10,1,12-3,16-3,6-1,6,5,0,7,2,9,5,3,7-11,5-11,8,5,6,2,7-5,2-8,0-3-7-6-3-2,8-3,9l-4,4a4.33,4.33,0,0,0-2,4c0,3,3,6,3,6s1,4,4,5,6,4,9,9,6,10,7,11,1,9,2,11,5,6,8,7,9,3,10,5-1,5,0,7,2,6,3,7l3,3c1,1,3-2,4,0s-2,3-1,5,4,3,5,3,4-1,6,0,3,4,3,5v1l.2,1.65"/><path class="cls-8" d="M1274.57,145.9s-8.07-10.4-11.07-10.4-19,2-24,2-11-1-18-2-11,1-18-2-15-3-19-7-3-8-8-6-5,7-8,7-7,1-9,1-8,1-6,4,7,8,7,11-5,4-2,10,6,8,8,12,3,8,7,12,6,4,9,10,0,10,1,17,2,25-7,27-12,5-15,9-6,8-4,13,5,10,1,13-4,7-5,11-4,5-7,8-5.94,6.14-5.94,6.14"/><path class="cls-8" d="M963.5,262.5h5c1,0,5,1,5,3s-1,4,1,5,5,1,6,3,2-1,5,3c0,0,6,3,6,7s-1,5,2,7,4,2,6,2,4-1,7-1,6,0,7,2,3,3,5,2,6-1,9-2,4-1,6-2,4-5,7-7,6-1,7-3,3-3,4-4a39.87,39.87,0,0,1,4-3"/><path class="cls-8" d="M1153.13,131.06s-3.63-1.56-6.63.44-5,4-7,4-2,0-4,2-1,6-3,6a12.68,12.68,0,0,0-6,1c-2,1-5,4-5,6v9c0,2-1.91,6-1.91,6"/></g><g id="图层_2" data-name="图层 2"><text class="cls-9" transform="translate(1246.86 276.38)">两</text><text class="cls-9" transform="translate(887.44 639.47)">广</text><text class="cls-9" transform="translate(704.09 586.47)">广</text><text class="cls-9" transform="translate(721.16 684.7)">南</text><text class="cls-9" transform="translate(738.85 775.24)">西</text><text class="cls-10" transform="translate(759.62 873.97)">路</text><text class="cls-9" transform="translate(930.05 633.55)">南</text><text class="cls-9" transform="translate(969.15 628.12)">东</text><text class="cls-9" transform="translate(1009.53 622.5)">路</text><text class="cls-9" transform="translate(951.67 209.61)">淮</text><text class="cls-9" transform="translate(713.93 182.66)">京</text><text class="cls-9" transform="translate(754.62 194.32)">西</text><text class="cls-9" transform="translate(796.89 209.66)">南</text><text class="cls-9" transform="translate(839.99 222.52)">路</text><text class="cls-9" transform="translate(990.45 209.01)">南</text><text class="cls-9" transform="translate(1026.61 209.01)">西</text><text class="cls-9" transform="translate(1061.87 208.52)">路</text><text class="cls-9" transform="translate(1229.37 308.78)">浙</text><text class="cls-9" transform="translate(1210.9 341.71)">东</text><text class="cls-9" transform="translate(1188.96 374.44)">路</text><text class="cls-9" transform="translate(1122.28 537.53)">路</text><text class="cls-9" transform="translate(1125.41 483.4)">建</text><text class="cls-9" transform="translate(1131.03 429.27)">福</text><text class="cls-9" transform="translate(1141.62 196.92)">江</text><text class="cls-9" transform="translate(975.74 385.44)">江</text><text class="cls-9" transform="translate(828.62 415.51)">荆</text><text class="cls-9" transform="translate(873.81 273)">荆</text><text class="cls-9" transform="translate(832.47 460.67)">湖</text><text class="cls-9" transform="translate(823.39 314.37)">湖</text><text class="cls-9" transform="translate(771.81 357.65)">北</text><text class="cls-9" transform="translate(835.31 504.44)">南</text><text class="cls-9" transform="translate(841.21 559.12)">路</text><text class="cls-9" transform="translate(711.75 407.69)">路</text><text class="cls-9" transform="translate(639.87 276.95)">夔</text><text class="cls-9" transform="translate(518.35 294.89)">潼</text><text class="cls-9" transform="translate(437.35 252.93)">成</text><text class="cls-9" transform="translate(535.55 168.78)">利</text><text class="cls-9" transform="translate(590.44 166.32)">州</text><text class="cls-9" transform="translate(645.5 163.11)">路</text><text class="cls-9" transform="translate(418.41 301.58)">都</text><text class="cls-9" transform="translate(401.64 341.95)">府</text><text class="cls-9" transform="translate(385.37 387.02)">路</text><text class="cls-9" transform="translate(505.61 351.65)">川</text><text class="cls-9" transform="translate(482.55 415.68)">府</text><text class="cls-9" transform="translate(460.21 473.71)">路</text><text class="cls-9" transform="translate(640.38 373.22)">州</text><text class="cls-9" transform="translate(641.92 469.49)">路</text><text class="cls-9" transform="translate(984.14 437.64)">南</text><text class="cls-9" transform="translate(991.92 491.23)">西</text><text class="cls-9" transform="translate(999.54 540.16)">路</text><text class="cls-9" transform="translate(1124.13 229.32)">南</text><text class="cls-9" transform="translate(1105.66 262.25)">东</text><text class="cls-9" transform="translate(1083.71 294.98)">路</text><text class="cls-9" transform="translate(1207.91 173.34)">两</text><text class="cls-9" transform="translate(1194.31 207.56)">浙</text><text class="cls-9" transform="translate(1179.82 242.43)">西</text><text class="cls-9" transform="translate(1161.84 277.49)">路</text></g></svg>